<svg width="169" height="32" viewBox="0 0 169 32" fill="none" xmlns="http://www.w3.org/2000/svg">
<path d="M51.9791 21V11.896H48.7311V9.8H57.6271V11.896H54.2831V21H51.9791ZM61.6185 21.16C60.7545 21.16 59.9865 20.9733 59.3145 20.6C58.6425 20.216 58.1145 19.6933 57.7305 19.032C57.3465 18.3707 57.1545 17.6133 57.1545 16.76C57.1545 15.9173 57.3465 15.1653 57.7305 14.504C58.1145 13.8427 58.6425 13.3253 59.3145 12.952C59.9865 12.568 60.7545 12.376 61.6185 12.376C62.4612 12.376 63.2185 12.568 63.8905 12.952C64.5625 13.3253 65.0905 13.8427 65.4745 14.504C65.8585 15.1653 66.0505 15.9173 66.0505 16.76C66.0505 17.6133 65.8585 18.3707 65.4745 19.032C65.0905 19.6933 64.5625 20.216 63.8905 20.6C63.2185 20.9733 62.4612 21.16 61.6185 21.16ZM61.6185 19.256C62.0452 19.256 62.4292 19.1493 62.7705 18.936C63.1118 18.712 63.3732 18.4133 63.5545 18.04C63.7465 17.6667 63.8425 17.24 63.8425 16.76C63.8425 16.28 63.7465 15.8533 63.5545 15.48C63.3732 15.1067 63.1118 14.8133 62.7705 14.6C62.4292 14.3867 62.0452 14.28 61.6185 14.28C61.1812 14.28 60.7918 14.3867 60.4505 14.6C60.1092 14.8133 59.8425 15.1067 59.6505 15.48C59.4585 15.8533 59.3625 16.28 59.3625 16.76C59.3625 17.24 59.4585 17.6667 59.6505 18.04C59.8425 18.4133 60.1092 18.712 60.4505 18.936C60.7918 19.1493 61.1812 19.256 61.6185 19.256ZM71.4406 21.16C70.6406 21.16 69.9206 20.968 69.2806 20.584C68.6513 20.2 68.15 19.6773 67.7766 19.016C67.414 18.3547 67.2326 17.6027 67.2326 16.76C67.2326 15.928 67.414 15.1813 67.7766 14.52C68.15 13.8587 68.6513 13.336 69.2806 12.952C69.9206 12.568 70.6406 12.376 71.4406 12.376C72.198 12.376 72.886 12.5147 73.5046 12.792C74.134 13.0693 74.6246 13.4587 74.9766 13.96L73.7766 15.4C73.5526 15.0907 73.2433 14.8293 72.8486 14.616C72.454 14.392 72.054 14.28 71.6486 14.28C71.2006 14.28 70.8006 14.392 70.4486 14.616C70.1073 14.8293 69.8353 15.1227 69.6326 15.496C69.4406 15.8693 69.3446 16.2907 69.3446 16.76C69.3446 17.2293 69.446 17.6507 69.6486 18.024C69.8513 18.3973 70.1286 18.696 70.4806 18.92C70.8326 19.1333 71.2273 19.24 71.6646 19.24C72.0806 19.24 72.4646 19.1493 72.8166 18.968C73.1686 18.776 73.4886 18.5093 73.7766 18.168L74.9766 19.608C74.614 20.0773 74.1126 20.456 73.4726 20.744C72.8326 21.0213 72.1553 21.16 71.4406 21.16ZM79.6169 21.16C78.9129 21.16 78.2782 20.968 77.7129 20.584C77.1475 20.2 76.6942 19.6773 76.3529 19.016C76.0222 18.3547 75.8569 17.6027 75.8569 16.76C75.8569 15.896 76.0222 15.1387 76.3529 14.488C76.6942 13.8267 77.1529 13.3093 77.7289 12.936C78.3155 12.5627 78.9769 12.376 79.7129 12.376C80.3102 12.376 80.8329 12.4987 81.2809 12.744C81.7289 12.9787 82.0862 13.288 82.3529 13.672V12.552H84.5289V21H82.3369V19.864C82.0382 20.2373 81.6489 20.5467 81.1689 20.792C80.6995 21.0373 80.1822 21.16 79.6169 21.16ZM80.2089 19.256C80.8595 19.256 81.3875 19.0267 81.7929 18.568C82.1982 18.1093 82.4009 17.5067 82.4009 16.76C82.4009 16.0133 82.1982 15.4107 81.7929 14.952C81.3875 14.4933 80.8595 14.264 80.2089 14.264C79.5689 14.264 79.0462 14.4933 78.6409 14.952C78.2462 15.4107 78.0489 16.0133 78.0489 16.76C78.0489 17.5067 78.2462 18.1093 78.6409 18.568C79.0462 19.0267 79.5689 19.256 80.2089 19.256ZM86.8079 21V12.552H88.9199L88.9519 13.688C89.2399 13.304 89.6239 12.9893 90.1039 12.744C90.5839 12.4987 91.0852 12.376 91.6079 12.376C93.5492 12.376 94.5199 13.528 94.5199 15.832V21H92.3439V15.992C92.3439 14.7867 91.8372 14.2053 90.8239 14.248C90.3012 14.248 89.8639 14.408 89.5119 14.728C89.1705 15.048 88.9999 15.4427 88.9999 15.912V21H86.8079ZM100.043 21.16C99.2958 21.16 98.6292 20.9733 98.0425 20.6C97.4558 20.216 96.9918 19.6933 96.6505 19.032C96.3198 18.3707 96.1545 17.6187 96.1545 16.776C96.1545 15.9227 96.3198 15.1653 96.6505 14.504C96.9918 13.8427 97.4558 13.3253 98.0425 12.952C98.6292 12.568 99.2958 12.376 100.043 12.376C100.555 12.376 101.04 12.4773 101.499 12.68C101.968 12.8827 102.347 13.144 102.635 13.464V9.16H104.827V21H102.747L102.715 19.992C102.437 20.3227 102.059 20.6 101.579 20.824C101.099 21.048 100.587 21.16 100.043 21.16ZM100.523 19.336C101.173 19.336 101.701 19.1013 102.107 18.632C102.512 18.152 102.715 17.5333 102.715 16.776C102.715 16.008 102.512 15.3893 102.107 14.92C101.701 14.44 101.173 14.2 100.523 14.2C99.8718 14.2 99.3438 14.44 98.9385 14.92C98.5332 15.3893 98.3305 16.008 98.3305 16.776C98.3305 17.5333 98.5332 18.152 98.9385 18.632C99.3438 19.1013 99.8718 19.336 100.523 19.336ZM110.962 21.16C110.098 21.16 109.33 20.9733 108.658 20.6C107.986 20.216 107.458 19.6933 107.074 19.032C106.69 18.3707 106.498 17.6133 106.498 16.76C106.498 15.9173 106.69 15.1653 107.074 14.504C107.458 13.8427 107.986 13.3253 108.658 12.952C109.33 12.568 110.098 12.376 110.962 12.376C111.805 12.376 112.562 12.568 113.234 12.952C113.906 13.3253 114.434 13.8427 114.818 14.504C115.202 15.1653 115.394 15.9173 115.394 16.76C115.394 17.6133 115.202 18.3707 114.818 19.032C114.434 19.6933 113.906 20.216 113.234 20.6C112.562 20.9733 111.805 21.16 110.962 21.16ZM110.962 19.256C111.389 19.256 111.773 19.1493 112.114 18.936C112.456 18.712 112.717 18.4133 112.898 18.04C113.09 17.6667 113.186 17.24 113.186 16.76C113.186 16.28 113.09 15.8533 112.898 15.48C112.717 15.1067 112.456 14.8133 112.114 14.6C111.773 14.3867 111.389 14.28 110.962 14.28C110.525 14.28 110.136 14.3867 109.794 14.6C109.453 14.8133 109.186 15.1067 108.994 15.48C108.802 15.8533 108.706 16.28 108.706 16.76C108.706 17.24 108.802 17.6667 108.994 18.04C109.186 18.4133 109.453 18.712 109.794 18.936C110.136 19.1493 110.525 19.256 110.962 19.256ZM125.148 21.16C124.444 21.16 123.809 20.968 123.244 20.584C122.679 20.2 122.225 19.6773 121.884 19.016C121.553 18.3547 121.388 17.6027 121.388 16.76C121.388 15.896 121.553 15.1387 121.884 14.488C122.225 13.8267 122.684 13.3093 123.26 12.936C123.847 12.5627 124.508 12.376 125.244 12.376C125.841 12.376 126.364 12.4987 126.812 12.744C127.26 12.9787 127.617 13.288 127.884 13.672V12.552H130.06V21H127.868V19.864C127.569 20.2373 127.18 20.5467 126.7 20.792C126.231 21.0373 125.713 21.16 125.148 21.16ZM125.74 19.256C126.391 19.256 126.919 19.0267 127.324 18.568C127.729 18.1093 127.932 17.5067 127.932 16.76C127.932 16.0133 127.729 15.4107 127.324 14.952C126.919 14.4933 126.391 14.264 125.74 14.264C125.1 14.264 124.577 14.4933 124.172 14.952C123.777 15.4107 123.58 16.0133 123.58 16.76C123.58 17.5067 123.777 18.1093 124.172 18.568C124.577 19.0267 125.1 19.256 125.74 19.256ZM136.179 24.68C135.528 24.68 134.878 24.5787 134.227 24.376C133.587 24.184 133.064 23.9333 132.659 23.624L133.427 22.04C133.758 22.2853 134.147 22.4773 134.595 22.616C135.054 22.7547 135.518 22.824 135.987 22.824C137.64 22.824 138.467 22.0453 138.467 20.488V19.832C138.2 20.1733 137.827 20.4613 137.347 20.696C136.878 20.92 136.382 21.032 135.859 21.032C135.08 21.032 134.382 20.8507 133.763 20.488C133.155 20.1147 132.675 19.608 132.323 18.968C131.971 18.3173 131.795 17.576 131.795 16.744C131.795 15.9013 131.966 15.1493 132.307 14.488C132.659 13.8267 133.139 13.3093 133.747 12.936C134.355 12.5627 135.038 12.376 135.795 12.376C136.36 12.376 136.883 12.4933 137.363 12.728C137.854 12.952 138.243 13.224 138.531 13.544L138.563 12.552H140.659V20.376C140.659 21.752 140.259 22.8133 139.459 23.56C138.67 24.3067 137.576 24.68 136.179 24.68ZM136.243 19.24C136.936 19.24 137.491 19.0107 137.907 18.552C138.334 18.0933 138.547 17.496 138.547 16.76C138.547 16.0133 138.334 15.4107 137.907 14.952C137.48 14.4827 136.926 14.248 136.243 14.248C135.571 14.248 135.022 14.4827 134.595 14.952C134.179 15.4213 133.971 16.024 133.971 16.76C133.971 17.496 134.179 18.0933 134.595 18.552C135.022 19.0107 135.571 19.24 136.243 19.24ZM146.837 21.16C145.973 21.16 145.205 20.9733 144.533 20.6C143.861 20.216 143.333 19.6933 142.949 19.032C142.565 18.3707 142.373 17.6133 142.373 16.76C142.373 15.9173 142.565 15.1653 142.949 14.504C143.333 13.8427 143.861 13.3253 144.533 12.952C145.205 12.568 145.973 12.376 146.837 12.376C147.68 12.376 148.437 12.568 149.109 12.952C149.781 13.3253 150.309 13.8427 150.693 14.504C151.077 15.1653 151.269 15.9173 151.269 16.76C151.269 17.6133 151.077 18.3707 150.693 19.032C150.309 19.6933 149.781 20.216 149.109 20.6C148.437 20.9733 147.68 21.16 146.837 21.16ZM146.837 19.256C147.264 19.256 147.648 19.1493 147.989 18.936C148.331 18.712 148.592 18.4133 148.773 18.04C148.965 17.6667 149.061 17.24 149.061 16.76C149.061 16.28 148.965 15.8533 148.773 15.48C148.592 15.1067 148.331 14.8133 147.989 14.6C147.648 14.3867 147.264 14.28 146.837 14.28C146.4 14.28 146.011 14.3867 145.669 14.6C145.328 14.8133 145.061 15.1067 144.869 15.48C144.677 15.8533 144.581 16.28 144.581 16.76C144.581 17.24 144.677 17.6667 144.869 18.04C145.061 18.4133 145.328 18.712 145.669 18.936C146.011 19.1493 146.4 19.256 146.837 19.256ZM152.995 21V12.552H155.107L155.139 13.944C155.417 13.4853 155.779 13.112 156.227 12.824C156.686 12.5253 157.166 12.376 157.667 12.376C157.859 12.376 158.035 12.392 158.195 12.424C158.366 12.4453 158.51 12.4773 158.627 12.52L158.035 14.92C157.918 14.856 157.769 14.8027 157.587 14.76C157.406 14.7173 157.225 14.696 157.043 14.696C156.521 14.696 156.078 14.8773 155.715 15.24C155.363 15.592 155.187 16.04 155.187 16.584V21H152.995ZM162.742 21.16C162.038 21.16 161.403 20.968 160.838 20.584C160.273 20.2 159.819 19.6773 159.478 19.016C159.147 18.3547 158.982 17.6027 158.982 16.76C158.982 15.896 159.147 15.1387 159.478 14.488C159.819 13.8267 160.278 13.3093 160.854 12.936C161.441 12.5627 162.102 12.376 162.838 12.376C163.435 12.376 163.958 12.4987 164.406 12.744C164.854 12.9787 165.211 13.288 165.478 13.672V12.552H167.654V21H165.462V19.864C165.163 20.2373 164.774 20.5467 164.294 20.792C163.825 21.0373 163.307 21.16 162.742 21.16ZM163.334 19.256C163.985 19.256 164.513 19.0267 164.918 18.568C165.323 18.1093 165.526 17.5067 165.526 16.76C165.526 16.0133 165.323 15.4107 164.918 14.952C164.513 14.4933 163.985 14.264 163.334 14.264C162.694 14.264 162.171 14.4933 161.766 14.952C161.371 15.4107 161.174 16.0133 161.174 16.76C161.174 17.5067 161.371 18.1093 161.766 18.568C162.171 19.0267 162.694 19.256 163.334 19.256Z" fill="white"/>
<path d="M20.7081 19.0347H19.6241C19.3268 19.0347 19.0548 19.2027 18.9228 19.468L17.9214 21.4707C17.7774 21.76 17.3641 21.76 17.2201 21.4707L14.7708 16.5707C14.6281 16.2867 14.2254 16.28 14.0748 16.56L12.9601 18.6227C12.8228 18.876 12.5574 19.0347 12.2694 19.0347H11.2921" stroke="white" stroke-width="2" stroke-linecap="round" stroke-linejoin="round"/>
<path d="M6.55874 16H5.33474C3.62541 16 2.35741 17.5867 2.73341 19.2533L3.63608 23.2533C3.91074 24.4693 4.99074 25.3333 6.23741 25.3333H7.83208C8.26008 25.3333 8.57608 24.9373 8.48274 24.52L6.76008 16.892C5.42274 10.968 9.92674 5.33333 16.0001 5.33333V5.33333V5.33333C22.0734 5.33333 26.5774 10.968 25.2401 16.892L23.5187 24.52C23.4241 24.9373 23.7414 25.3333 24.1681 25.3333H25.7627C27.0094 25.3333 28.0894 24.4693 28.3641 23.2533L29.2667 19.2533C29.6427 17.5867 28.3747 16 26.6654 16H25.4414" stroke="#04D361" stroke-width="2" stroke-linecap="round" stroke-linejoin="round"/>
</svg>
