<svg width="64" height="64" viewBox="0 0 64 64" fill="none" xmlns="http://www.w3.org/2000/svg">
<rect width="64" height="64" rx="16" fill="#6F48C9"/>
<path fill-rule="evenodd" clip-rule="evenodd" d="M27.5 22C26.6716 22 26 22.6716 26 23.5V39.5C26 40.3284 26.6716 41 27.5 41C28.3284 41 29 40.3284 29 39.5V23.5C29 22.6716 28.3284 22 27.5 22ZM35.5 22C34.6716 22 34 22.6716 34 23.5V39.5C34 40.3284 34.6716 41 35.5 41C36.3284 41 37 40.3284 37 39.5V23.5C37 22.6716 36.3284 22 35.5 22Z" fill="white"/>
</svg>
